<svg width="15" height="14" viewBox="0 0 15 14" fill="none" xmlns="http://www.w3.org/2000/svg">
<path fill-rule="evenodd" clip-rule="evenodd" d="M10.1113 1.29794C9.97404 1.25335 9.7837 1.24599 9.11984 1.24599H4.14426C3.66998 1.24599 3.35018 1.24645 3.10357 1.2666C2.86393 1.28618 2.74645 1.32133 2.66726 1.36168C2.46753 1.46344 2.30515 1.62583 2.20339 1.82555C2.16304 1.90474 2.12789 2.02222 2.10831 2.26186C2.09806 2.38725 2.09291 2.53157 2.09031 2.70549H10.7784L10.8027 2.70549H10.8028C10.8166 2.70549 10.8304 2.70549 10.8441 2.70549C10.8417 2.25173 10.8307 2.09631 10.7928 1.97943C10.6878 1.65629 10.4344 1.40293 10.1113 1.29794ZM12.0389 2.74184C12.0385 2.28294 12.0299 1.9227 11.9284 1.61043C11.7053 0.923737 11.167 0.385364 10.4803 0.162245C10.1383 0.0511212 9.73871 0.051416 9.21503 0.0518024L9.11984 0.0518489H4.14426L4.11988 0.0518486C3.67619 0.0518404 3.30735 0.0518337 3.00633 0.0764279C2.69284 0.102041 2.40072 0.157275 2.12513 0.297694C1.70071 0.513945 1.35565 0.859007 1.1394 1.28342C0.998982 1.55901 0.943748 1.85114 0.918135 2.16462C0.893542 2.46563 0.893548 2.83446 0.893555 3.27814V3.27818V3.30256V8.60984V8.63422V8.63426C0.893548 9.07793 0.893542 9.44676 0.918135 9.74777C0.943748 10.0613 0.998982 10.3534 1.1394 10.629C1.35565 11.0534 1.70071 11.3984 2.12513 11.6147C2.40072 11.7551 2.69284 11.8104 3.00633 11.836C3.30735 11.8606 3.67619 11.8606 4.11988 11.8605H4.14426H6.86424C7.194 11.8605 7.46131 11.5932 7.46131 11.2635C7.46131 10.9337 7.194 10.6664 6.86424 10.6664H4.14426C3.66998 10.6664 3.35018 10.6659 3.10357 10.6458C2.86393 10.6262 2.74645 10.5911 2.66726 10.5507C2.46753 10.4489 2.30515 10.2866 2.20339 10.0868C2.16304 10.0077 2.12789 9.89017 2.10831 9.65053C2.08816 9.40392 2.08769 9.08412 2.08769 8.60984V3.89963H10.7784C11.2526 3.89963 11.5724 3.90009 11.8191 3.92024C12.0587 3.93982 12.1762 3.97497 12.2554 4.01532C12.4551 4.11708 12.6175 4.27946 12.7192 4.47919C12.7596 4.55838 12.7947 4.67586 12.8143 4.9155C12.8345 5.16211 12.8349 5.48191 12.8349 5.9562V8.67618C12.8349 9.00593 13.1022 9.27325 13.432 9.27325C13.7618 9.27325 14.0291 9.00593 14.0291 8.67618V5.9562V5.93181C14.0291 5.48812 14.0291 5.11928 14.0045 4.81826C13.9789 4.50477 13.9236 4.21265 13.7832 3.93706C13.567 3.51265 13.2219 3.16758 12.7975 2.95133C12.5582 2.82939 12.3064 2.77169 12.0389 2.74184ZM10.0486 6.68595C9.71886 6.68595 9.45154 6.95326 9.45154 7.28302C9.45154 7.61277 9.71886 7.88008 10.0486 7.88008H10.8447C11.1745 7.88008 11.4418 7.61277 11.4418 7.28302C11.4418 6.95326 11.1745 6.68595 10.8447 6.68595H10.0486ZM11.2669 9.9608C11.5001 9.72763 11.5001 9.34959 11.2669 9.11642C11.0337 8.88325 10.6557 8.88325 10.4225 9.11642L8.69765 10.8413C8.46448 11.0745 8.46448 11.4525 8.69765 11.6857L10.4225 13.4105C10.6557 13.6437 11.0337 13.6437 11.2669 13.4105C11.5001 13.1774 11.5001 12.7993 11.2669 12.5661L10.5613 11.8605H14.1618C14.4915 11.8605 14.7588 11.5932 14.7588 11.2635C14.7588 10.9337 14.4915 10.6664 14.1618 10.6664H10.5613L11.2669 9.9608Z" fill="#DE4483"/>
</svg>
