<svg width="69" height="57" viewBox="0 0 69 57" fill="none" xmlns="http://www.w3.org/2000/svg">
<g filter="url(#filter0_dd_11440_11800)">
<g opacity="0.5" filter="url(#filter1_b_11440_11800)">
<path d="M31.6533 3.74137C15.6761 5.1392 3.45412 21.4171 5.08301 40.0355C6.7119 58.6538 22.3143 72.8544 38.2915 71.4565" stroke="url(#paint0_radial_11440_11800)" stroke-opacity="0.9" stroke-width="1.65942"/>
<path d="M31.6533 3.74137C15.6761 5.1392 3.45412 21.4171 5.08301 40.0355C6.7119 58.6538 22.3143 72.8544 38.2915 71.4565" stroke="url(#paint1_radial_11440_11800)" stroke-opacity="0.9" stroke-width="1.65942"/>
<path d="M31.6533 3.74137C15.6761 5.1392 3.45412 21.4171 5.08301 40.0355C6.7119 58.6538 22.3143 72.8544 38.2915 71.4565" stroke="url(#paint2_radial_11440_11800)" stroke-opacity="0.9" stroke-width="1.65942"/>
<path d="M31.6533 3.74137C15.6761 5.1392 3.45412 21.4171 5.08301 40.0355C6.7119 58.6538 22.3143 72.8544 38.2915 71.4565" stroke="url(#paint3_radial_11440_11800)" stroke-opacity="0.9" stroke-width="1.65942"/>
<path d="M31.6533 3.74137C15.6761 5.1392 3.45412 21.4171 5.08301 40.0355C6.7119 58.6538 22.3143 72.8544 38.2915 71.4565" stroke="url(#paint4_radial_11440_11800)" stroke-opacity="0.9" stroke-width="1.65942"/>
<path d="M31.6533 3.74137C15.6761 5.1392 3.45412 21.4171 5.08301 40.0355C6.7119 58.6538 22.3143 72.8544 38.2915 71.4565" stroke="#C8E8FF" stroke-width="1.65942" style="mix-blend-mode:color"/>
</g>
<path d="M5.80677 40.2021C4.17892 21.5957 15.8029 5.38778 31.7597 3.99174C47.7169 2.59567 62.5998 16.8418 64.2277 35.4479C65.8555 54.0543 54.2315 70.2622 38.2747 71.6582C22.3175 73.0543 7.43459 58.8081 5.80677 40.2021Z" fill="url(#paint5_linear_11440_11800)"/>
<path d="M5.80677 40.2021C4.17892 21.5957 15.8029 5.38778 31.7597 3.99174C47.7169 2.59567 62.5998 16.8418 64.2277 35.4479C65.8555 54.0543 54.2315 70.2622 38.2747 71.6582C22.3175 73.0543 7.43459 58.8081 5.80677 40.2021Z" stroke="url(#paint6_radial_11440_11800)" stroke-width="0.0592648"/>
<path d="M5.80677 40.2021C4.17892 21.5957 15.8029 5.38778 31.7597 3.99174C47.7169 2.59567 62.5998 16.8418 64.2277 35.4479C65.8555 54.0543 54.2315 70.2622 38.2747 71.6582C22.3175 73.0543 7.43459 58.8081 5.80677 40.2021Z" stroke="url(#paint7_linear_11440_11800)" stroke-opacity="0.05" stroke-width="0.0592648"/>
<path d="M8.97173 39.824C7.51627 23.188 17.9081 8.7576 32.0979 7.51615C46.2911 6.2744 59.9716 19.2806 61.4268 35.9126C62.8822 52.5487 52.4904 66.9791 38.3006 68.2205C24.1073 69.4623 10.4269 56.4561 8.97173 39.824Z" stroke="url(#paint8_linear_11440_11800)" stroke-width="0.502927"/>
</g>
<g filter="url(#filter2_ii_11440_11800)">
<path d="M45.4006 35.1763L46.5317 42.2208L43.2203 46.7233L39.5641 47.251L40.1957 51.1845L36.1093 51.7742L35.4777 47.8407L31.6064 48.3994L27.1149 45.0961L26.5408 41.5202L31.3441 40.827L31.6828 42.9368L33.0552 43.9462L34.8116 43.6927L33.7609 37.1488L29.9613 37.6971L25.4699 34.3939L24.4077 27.7785L27.6589 23.3578L31.4585 22.8095L30.8269 18.876L34.9133 18.2863L35.5449 22.2198L38.9861 21.7231L43.4775 25.0264L44.0574 28.6381L39.2541 29.3313L38.9096 27.1857L37.5372 26.1764L36.2109 26.3678L37.1813 32.411L40.9092 31.873L45.4006 35.1763ZM33.0949 33.0008L32.1245 26.9575L30.4398 27.2006L29.4464 28.5514L30.0378 32.2346L31.4101 33.2439L33.0949 33.0008ZM40.8327 37.3356L39.4604 36.3263L37.8473 36.5591L38.898 43.103L40.4752 42.8753L41.4988 41.4837L40.8327 37.3356Z" fill="url(#paint9_radial_11440_11800)"/>
</g>
<defs>
<filter id="filter0_dd_11440_11800" x="0.0405974" y="0.891602" width="68.4359" height="77.6009" filterUnits="userSpaceOnUse" color-interpolation-filters="sRGB">
<feFlood flood-opacity="0" result="BackgroundImageFix"/>
<feColorMatrix in="SourceAlpha" type="matrix" values="0 0 0 0 0 0 0 0 0 0 0 0 0 0 0 0 0 0 127 0" result="hardAlpha"/>
<feOffset dy="0.850503"/>
<feGaussianBlur stdDeviation="0.84625"/>
<feColorMatrix type="matrix" values="0 0 0 0 0 0 0 0 0 0 0 0 0 0 0 0 0 0 0.140573 0"/>
<feBlend mode="normal" in2="BackgroundImageFix" result="effect1_dropShadow_11440_11800"/>
<feColorMatrix in="SourceAlpha" type="matrix" values="0 0 0 0 0 0 0 0 0 0 0 0 0 0 0 0 0 0 127 0" result="hardAlpha"/>
<feOffset dy="2.04388"/>
<feGaussianBlur stdDeviation="2.03366"/>
<feColorMatrix type="matrix" values="0 0 0 0 0 0 0 0 0 0 0 0 0 0 0 0 0 0 0.201946 0"/>
<feBlend mode="normal" in2="effect1_dropShadow_11440_11800" result="effect2_dropShadow_11440_11800"/>
<feBlend mode="normal" in="SourceGraphic" in2="effect2_dropShadow_11440_11800" result="shape"/>
</filter>
<filter id="filter1_b_11440_11800" x="-0.0406284" y="-1.2335" width="42.5529" height="77.7634" filterUnits="userSpaceOnUse" color-interpolation-filters="sRGB">
<feFlood flood-opacity="0" result="BackgroundImageFix"/>
<feGaussianBlur in="BackgroundImageFix" stdDeviation="2.07427"/>
<feComposite in2="SourceAlpha" operator="in" result="effect1_backgroundBlur_11440_11800"/>
<feBlend mode="normal" in="SourceGraphic" in2="effect1_backgroundBlur_11440_11800" result="shape"/>
</filter>
<filter id="filter2_ii_11440_11800" x="23.0845" y="17.1895" width="24.7104" height="35.7021" filterUnits="userSpaceOnUse" color-interpolation-filters="sRGB">
<feFlood flood-opacity="0" result="BackgroundImageFix"/>
<feBlend mode="normal" in="SourceGraphic" in2="BackgroundImageFix" result="shape"/>
<feColorMatrix in="SourceAlpha" type="matrix" values="0 0 0 0 0 0 0 0 0 0 0 0 0 0 0 0 0 0 127 0" result="hardAlpha"/>
<feOffset dx="-0.253717" dy="-0.507434"/>
<feComposite in2="hardAlpha" operator="arithmetic" k2="-1" k3="1"/>
<feColorMatrix type="matrix" values="0 0 0 0 1 0 0 0 0 1 0 0 0 0 1 0 0 0 0.25 0"/>
<feBlend mode="normal" in2="shape" result="effect1_innerShadow_11440_11800"/>
<feColorMatrix in="SourceAlpha" type="matrix" values="0 0 0 0 0 0 0 0 0 0 0 0 0 0 0 0 0 0 127 0" result="hardAlpha"/>
<feOffset dx="0.236091" dy="0.472183"/>
<feComposite in2="hardAlpha" operator="arithmetic" k2="-1" k3="1"/>
<feColorMatrix type="matrix" values="0 0 0 0 0.268576 0 0 0 0 0.345042 0 0 0 0 0.541667 0 0 0 0.25 0"/>
<feBlend mode="normal" in2="effect1_innerShadow_11440_11800" result="effect2_innerShadow_11440_11800"/>
</filter>
<radialGradient id="paint0_radial_11440_11800" cx="0" cy="0" r="1" gradientUnits="userSpaceOnUse" gradientTransform="translate(0.606513 26.2682) rotate(48.4786) scale(13.643 6.08469)">
<stop stop-color="#0A0505"/>
<stop offset="0.302247" stop-color="#721A31"/>
<stop offset="0.989583" stop-color="#721A31" stop-opacity="0"/>
</radialGradient>
<radialGradient id="paint1_radial_11440_11800" cx="0" cy="0" r="1" gradientUnits="userSpaceOnUse" gradientTransform="translate(-3.73394 56.2151) rotate(-47.0463) scale(34.1573 15.2339)">
<stop stop-color="#FF7070"/>
<stop offset="1" stop-color="#FF7070" stop-opacity="0"/>
</radialGradient>
<radialGradient id="paint2_radial_11440_11800" cx="0" cy="0" r="1" gradientUnits="userSpaceOnUse" gradientTransform="translate(12.3666 70.9286) rotate(-90.2198) scale(17.0684 7.61238)">
<stop stop-color="#FF7070"/>
<stop offset="1" stop-color="#FF7070" stop-opacity="0"/>
</radialGradient>
<radialGradient id="paint3_radial_11440_11800" cx="0" cy="0" r="1" gradientUnits="userSpaceOnUse" gradientTransform="translate(-4.60843 53.0196) rotate(-41.5561) scale(25.9702 22.3959)">
<stop offset="0.00401228" stop-color="#4A67FA"/>
<stop offset="0.25" stop-color="#546EFF"/>
<stop offset="0.713542" stop-color="#F3F34E"/>
<stop offset="1" stop-color="#CCFFFA" stop-opacity="0"/>
</radialGradient>
<radialGradient id="paint4_radial_11440_11800" cx="0" cy="0" r="1" gradientUnits="userSpaceOnUse" gradientTransform="translate(20.2126 38.8903) rotate(-100.87) scale(31.8738 14.2155)">
<stop stop-color="#767676"/>
<stop offset="1" stop-color="white" stop-opacity="0"/>
</radialGradient>
<linearGradient id="paint5_linear_11440_11800" x1="62.3595" y1="17.4729" x2="1.00237" y2="69.5258" gradientUnits="userSpaceOnUse">
<stop stop-color="#B3C8E8"/>
<stop offset="0.335666" stop-color="white" stop-opacity="0.9"/>
<stop offset="0.75" stop-color="#B8CFF0" stop-opacity="0.995031"/>
</linearGradient>
<radialGradient id="paint6_radial_11440_11800" cx="0" cy="0" r="1" gradientUnits="userSpaceOnUse" gradientTransform="translate(75.6107 14.9389) rotate(149.056) scale(44.0258 37.9665)">
<stop stop-color="#343434"/>
<stop offset="1" stop-color="#A4A4A4" stop-opacity="0"/>
</radialGradient>
<linearGradient id="paint7_linear_11440_11800" x1="38.3234" y1="37.5357" x2="-28.8069" y2="14.1392" gradientUnits="userSpaceOnUse">
<stop stop-color="#3D3F3E"/>
<stop offset="1" stop-color="#606261"/>
</linearGradient>
<linearGradient id="paint8_linear_11440_11800" x1="55.9468" y1="19.1076" x2="14.3621" y2="58.496" gradientUnits="userSpaceOnUse">
<stop stop-color="white" stop-opacity="0.25"/>
<stop offset="1" stop-color="white" stop-opacity="0"/>
</linearGradient>
<radialGradient id="paint9_radial_11440_11800" cx="0" cy="0" r="1" gradientUnits="userSpaceOnUse" gradientTransform="translate(35.9173 35.6545) rotate(80.8781) scale(17 11.9985)">
<stop stop-color="#008F17"/>
<stop offset="1" stop-color="#42BA55"/>
</radialGradient>
</defs>
</svg>
